<svg width="17" height="18" viewBox="0 0 17 18" fill="none" xmlns="http://www.w3.org/2000/svg">
<g clip-path="url(#clip0_67_7365)">
<path d="M17 9C17 10.5489 16.6222 11.975 15.8667 13.2783C15.1111 14.5817 14.0817 15.6111 12.7783 16.3667C11.475 17.1222 10.0489 17.5 8.5 17.5C6.95111 17.5 5.525 17.1222 4.22167 16.3667C2.91833 15.6111 1.88889 14.5817 1.13333 13.2783C0.377778 11.975 0 10.5489 0 9C0 7.45111 0.377778 6.025 1.13333 4.72167C1.88889 3.41833 2.91833 2.38889 4.22167 1.63333C5.525 0.877777 6.95111 0.5 8.5 0.5C10.0489 0.5 11.475 0.877777 12.7783 1.63333C14.0817 2.38889 15.1111 3.41833 15.8667 4.72167C16.6222 6.025 17 7.45111 17 9ZM12.8067 5.77C12.6178 5.61889 12.41 5.54333 12.1833 5.54333C11.9567 5.54333 11.7678 5.63778 11.6167 5.82667L7.93333 10.53L5.72333 8.26333C5.57222 8.11222 5.38333 8.04611 5.15667 8.065C4.93 8.08389 4.74111 8.16889 4.59 8.32C4.43889 8.47111 4.36333 8.65056 4.36333 8.85833C4.36333 9.06611 4.43889 9.24555 4.59 9.39667L7.42333 12.23C7.57444 12.3811 7.76333 12.4567 7.99 12.4567C8.21667 12.4567 8.40556 12.3622 8.55667 12.1733L12.8067 6.90333C12.9578 6.75222 13.0333 6.56333 13.0333 6.33667C13.0333 6.11 12.9578 5.92111 12.8067 5.77Z" fill="#FA502C"/>
</g>
<defs>
<clipPath id="clip0_67_7365">
<rect width="17" height="17" fill="white" transform="matrix(1 0 0 -1 0 17.5)"/>
</clipPath>
</defs>
</svg>
