<svg width="32" height="32" viewBox="0 0 32 32" fill="none" xmlns="http://www.w3.org/2000/svg">
<path d="M17.9998 29.3333C15.5998 29.3333 13.5554 28.4889 11.8665 26.8C10.1776 25.1111 9.33317 23.0666 9.33317 20.6666V19.9C7.42206 19.5889 5.83317 18.6942 4.5665 17.216C3.29984 15.7377 2.6665 13.9991 2.6665 12V5.3333C2.6665 4.95552 2.7945 4.63908 3.0505 4.38396C3.3065 4.12885 3.62295 4.00085 3.99984 3.99996H6.6665C6.6665 3.62219 6.7945 3.30574 7.0505 3.05063C7.3065 2.79552 7.62295 2.66752 7.99984 2.66663C8.37673 2.66574 8.69361 2.79374 8.9505 3.05063C9.20739 3.30752 9.33495 3.62396 9.33317 3.99996V6.66663C9.33317 7.04441 9.20517 7.3613 8.94917 7.6173C8.69317 7.8733 8.37673 8.00085 7.99984 7.99996C7.62295 7.99907 7.3065 7.87107 7.0505 7.61596C6.7945 7.36085 6.6665 7.04441 6.6665 6.66663H5.33317V12C5.33317 13.4666 5.85539 14.7222 6.89984 15.7666C7.94428 16.8111 9.19984 17.3333 10.6665 17.3333C12.1332 17.3333 13.3887 16.8111 14.4332 15.7666C15.4776 14.7222 15.9998 13.4666 15.9998 12V6.66663H14.6665C14.6665 7.04441 14.5385 7.3613 14.2825 7.6173C14.0265 7.8733 13.7101 8.00085 13.3332 7.99996C12.9563 7.99907 12.6398 7.87107 12.3838 7.61596C12.1278 7.36085 11.9998 7.04441 11.9998 6.66663V3.99996C11.9998 3.62219 12.1278 3.30574 12.3838 3.05063C12.6398 2.79552 12.9563 2.66752 13.3332 2.66663C13.7101 2.66574 14.0269 2.79374 14.2838 3.05063C14.5407 3.30752 14.6683 3.62396 14.6665 3.99996H17.3332C17.7109 3.99996 18.0278 4.12796 18.2838 4.38396C18.5398 4.63996 18.6674 4.95641 18.6665 5.3333V12C18.6665 14 18.0332 15.7391 16.7665 17.2173C15.4998 18.6955 13.9109 19.5897 11.9998 19.9V20.6666C11.9998 22.3333 12.5834 23.7502 13.7505 24.9173C14.9176 26.0844 16.3341 26.6675 17.9998 26.6666C19.6656 26.6657 21.0825 26.0826 22.2505 24.9173C23.4185 23.752 24.0016 22.3351 23.9998 20.6666V18.4333C23.2221 18.1444 22.5834 17.6609 22.0838 16.9826C21.5843 16.3044 21.3341 15.5324 21.3332 14.6666C21.3332 13.5555 21.7221 12.6111 22.4998 11.8333C23.2776 11.0555 24.2221 10.6666 25.3332 10.6666C26.4443 10.6666 27.3887 11.0555 28.1665 11.8333C28.9443 12.6111 29.3332 13.5555 29.3332 14.6666C29.3332 15.5333 29.0834 16.3057 28.5838 16.984C28.0843 17.6622 27.4452 18.1453 26.6665 18.4333V20.6666C26.6665 23.0666 25.8221 25.1111 24.1332 26.8C22.4443 28.4889 20.3998 29.3333 17.9998 29.3333Z" fill="white"/>
</svg>
