<svg width="32" height="32" viewBox="0 0 32 32" fill="none" xmlns="http://www.w3.org/2000/svg">
<path d="M11.0641 5.13463C10.4321 3.61329 8.33344 3.46663 7.49477 4.88529L3.0361 12.436C2.86278 12.7295 2.76736 13.0625 2.75892 13.4033C2.75047 13.7441 2.82927 14.0814 2.98784 14.3831C3.1464 14.6849 3.37947 14.9411 3.66492 15.1275C3.95036 15.3139 4.2787 15.4242 4.61877 15.448L12.4428 15.9946C12.7829 16.0185 13.1234 15.955 13.4321 15.8101C13.7408 15.6653 14.0073 15.444 14.2063 15.1672C14.4054 14.8904 14.5304 14.5673 14.5694 14.2286C14.6085 13.8899 14.5603 13.5468 14.4294 13.232L11.0641 5.13463Z" fill="white"/>
<path d="M21.9999 2.66663C21.212 2.66663 20.4317 2.82182 19.7038 3.12335C18.9758 3.42488 18.3144 3.86683 17.7572 4.42399C17.2001 4.98114 16.7581 5.64257 16.4566 6.37053C16.1551 7.09848 15.9999 7.8787 15.9999 8.66663C15.9999 9.45456 16.1551 10.2348 16.4566 10.9627C16.7581 11.6907 17.2001 12.3521 17.7572 12.9093C18.3144 13.4664 18.9758 13.9084 19.7038 14.2099C20.4317 14.5114 21.212 14.6666 21.9999 14.6666C23.5912 14.6666 25.1173 14.0345 26.2425 12.9093C27.3677 11.784 27.9999 10.2579 27.9999 8.66663C27.9999 7.07533 27.3677 5.5492 26.2425 4.42399C25.1173 3.29877 23.5912 2.66663 21.9999 2.66663ZM18.7786 7.80796C18.8239 7.63881 18.9021 7.48024 19.0087 7.34132C19.1153 7.20239 19.2483 7.08583 19.4 6.99829C19.5516 6.91076 19.7191 6.85396 19.8927 6.83114C20.0663 6.80831 20.2427 6.81992 20.4119 6.86529L24.2759 7.90129C24.4491 7.94278 24.6123 8.01856 24.7557 8.12416C24.8992 8.22975 25.02 8.36301 25.1111 8.51609C25.2022 8.66916 25.2617 8.83893 25.2861 9.01538C25.3105 9.19182 25.2993 9.37137 25.2531 9.54341C25.207 9.71545 25.1268 9.8765 25.0174 10.0171C24.908 10.1576 24.7715 10.2748 24.616 10.3617C24.4605 10.4487 24.2892 10.5036 24.1122 10.5232C23.9351 10.5428 23.7559 10.5267 23.5852 10.476L19.7212 9.44129C19.5521 9.39596 19.3935 9.31775 19.2546 9.21113C19.1156 9.10451 18.9991 8.97157 18.9116 8.81989C18.824 8.66822 18.7672 8.50078 18.7444 8.32716C18.7216 8.15353 18.7332 7.9771 18.7786 7.80796ZM11.7706 28.912C10.7364 28.6461 9.81455 28.0561 9.13994 27.2284C8.46532 26.4007 8.07339 25.3788 8.02153 24.3123C7.96966 23.2458 8.26059 22.1907 8.85171 21.3015C9.44282 20.4122 10.3031 19.7356 11.3065 19.3706L19.4506 16.4066C20.0676 16.1821 20.7228 16.0812 21.3788 16.1099C22.0348 16.1386 22.6788 16.2962 23.2739 16.5737C23.869 16.8512 24.4036 17.2432 24.8472 17.7274C25.2908 18.2115 25.6347 18.7783 25.8592 19.3953C26.0838 20.0123 26.1846 20.6676 26.1559 21.3236C26.1273 21.9796 25.9697 22.6235 25.6922 23.2186C25.4146 23.8137 25.0226 24.3483 24.5385 24.7919C24.0544 25.2355 23.4876 25.5794 22.8706 25.804L14.7266 28.768C14.4012 28.8853 14.0741 28.9684 13.7452 29.0173M16.6039 20.28L20.3626 18.912C20.6506 18.8072 20.9564 18.7601 21.2626 18.7735C21.5689 18.7869 21.8694 18.8605 22.1472 18.9901C22.425 19.1197 22.6745 19.3027 22.8815 19.5287C23.0886 19.7547 23.2491 20.0193 23.3539 20.3073C23.4587 20.5953 23.5057 20.9012 23.4923 21.2074C23.4789 21.5136 23.4053 21.8142 23.2757 22.0919C23.1462 22.3697 22.9632 22.6192 22.7372 22.8263C22.5112 23.0333 22.2466 23.1938 21.9585 23.2986L18.1986 24.6653L16.6039 20.28Z" fill="white"/>
</svg>
