<svg width="32" height="32" viewBox="0 0 32 32" fill="none" xmlns="http://www.w3.org/2000/svg">
<path d="M14.0002 19.3333V20.6666C14.0002 21.2222 14.1948 21.6946 14.5842 22.084C14.9735 22.4733 15.4455 22.6675 16.0002 22.6666C16.5548 22.6657 17.0273 22.4715 17.4175 22.084C17.8077 21.6964 18.0019 21.224 18.0002 20.6666V19.3333H19.3335C19.8891 19.3333 20.3615 19.1391 20.7508 18.7506C21.1402 18.3622 21.3344 17.8897 21.3335 17.3333C21.3326 16.7768 21.1384 16.3048 20.7508 15.9173C20.3633 15.5297 19.8908 15.3351 19.3335 15.3333H18.0002V14C18.0002 13.4444 17.8059 12.9724 17.4175 12.584C17.0291 12.1955 16.5566 12.0008 16.0002 12C15.4437 11.9991 14.9717 12.1937 14.5842 12.584C14.1966 12.9742 14.0019 13.4462 14.0002 14V15.3333H12.6668C12.1113 15.3333 11.6393 15.528 11.2508 15.9173C10.8624 16.3066 10.6677 16.7786 10.6668 17.3333C10.6659 17.888 10.8606 18.3604 11.2508 18.7506C11.6411 19.1408 12.1131 19.3351 12.6668 19.3333H14.0002ZM8.00016 28C7.26683 28 6.63927 27.7391 6.1175 27.2173C5.59572 26.6955 5.33438 26.0675 5.3335 25.3333V13.3333C5.3335 12.9111 5.42816 12.5111 5.6175 12.1333C5.80683 11.7555 6.06772 11.4444 6.40016 11.2L14.4002 5.19996C14.8668 4.8444 15.4002 4.66663 16.0002 4.66663C16.6002 4.66663 17.1335 4.8444 17.6002 5.19996L25.6002 11.2C25.9335 11.4444 26.1948 11.7555 26.3842 12.1333C26.5735 12.5111 26.6677 12.9111 26.6668 13.3333V25.3333C26.6668 26.0666 26.4055 26.6946 25.8828 27.2173C25.3602 27.74 24.7326 28.0008 24.0002 28H8.00016Z" fill="white"/>
</svg>
