<svg width="32" height="32" viewBox="0 0 32 32" fill="none" xmlns="http://www.w3.org/2000/svg">
<g clip-path="url(#clip0_67_6277)">
<path d="M31.3601 10.88C31.3601 10.528 31.0721 10.24 30.7201 10.24H22.4001C22.0481 10.24 21.7601 9.95201 21.7601 9.60001V1.28001C21.7601 0.928015 21.4721 0.640015 21.1201 0.640015H10.8801C10.5281 0.640015 10.2401 0.928015 10.2401 1.28001V9.60001C10.2401 9.95201 9.95214 10.24 9.60014 10.24H1.28014C0.928137 10.24 0.640137 10.528 0.640137 10.88V21.12C0.640137 21.472 0.928137 21.76 1.28014 21.76H9.60014C9.95214 21.76 10.2401 22.048 10.2401 22.4V30.72C10.2401 31.072 10.5281 31.36 10.8801 31.36H21.1201C21.4721 31.36 21.7601 31.072 21.7601 30.72V22.4C21.7601 22.048 22.0481 21.76 22.4001 21.76H30.7201C31.0721 21.76 31.3601 21.472 31.3601 21.12V10.88Z" fill="white"/>
</g>
<defs>
<clipPath id="clip0_67_6277">
<rect width="32" height="32" fill="white"/>
</clipPath>
</defs>
</svg>
