<svg width="32" height="32" viewBox="0 0 32 32" fill="none" xmlns="http://www.w3.org/2000/svg">
<path fill-rule="evenodd" clip-rule="evenodd" d="M21.1867 4.21467C21.4367 3.96511 21.7755 3.82495 22.1287 3.82495C22.4819 3.82495 22.8207 3.96511 23.0707 4.21467L26.8334 7.97733L26.8427 7.98533L26.8507 7.99467L27.784 8.928C28.0271 9.1793 28.1617 9.51601 28.1589 9.86561C28.1562 10.2152 28.0162 10.5497 27.7691 10.7971C27.5221 11.0445 27.1878 11.185 26.8382 11.1882C26.4886 11.1915 26.1517 11.0574 25.9 10.8147L24.0134 12.7L26.3707 15.0573C26.6136 15.3088 26.748 15.6456 26.7449 15.9952C26.7419 16.3448 26.6017 16.6792 26.3545 16.9264C26.1072 17.1736 25.7728 17.3139 25.4232 17.3169C25.0736 17.3199 24.7368 17.1855 24.4854 16.9427L23.5427 16L16 23.5427C15.6286 23.9142 15.1876 24.2089 14.7023 24.4099C14.2169 24.611 13.6967 24.7145 13.1714 24.7145C12.646 24.7145 12.1258 24.611 11.6405 24.4099C11.1551 24.2089 10.7141 23.9142 10.3427 23.5427L6.1827 27.704C5.93269 27.9542 5.59353 28.0948 5.23984 28.0949C4.88614 28.0951 4.54689 27.9547 4.2967 27.7047C4.04651 27.4547 3.90589 27.1155 3.90576 26.7618C3.90564 26.4081 4.04602 26.0689 4.29603 25.8187L8.45737 21.656C7.70748 20.9059 7.28622 19.8887 7.28622 18.828C7.28622 17.7673 7.70748 16.7501 8.45737 16L16 8.45733L15.0574 7.51467C14.8145 7.2632 14.6801 6.92639 14.6831 6.5768C14.6862 6.2272 14.8264 5.89279 15.0736 5.64558C15.3208 5.39836 15.6552 5.25814 16.0048 5.2551C16.3544 5.25206 16.6912 5.38646 16.9427 5.62933L19.3 7.98533L21.1854 6.1C20.9354 5.84996 20.795 5.51089 20.795 5.15733C20.795 4.80378 20.9354 4.4647 21.1854 4.21467M24.012 8.92933L22.128 10.8133L21.1854 9.87067L23.0707 7.98533L24.012 8.92933ZM12.228 17.8853L11.2854 16.9427L13.1707 15.0573L14.1134 16C14.3562 16.2515 14.4906 16.5883 14.4876 16.9379C14.4846 17.2875 14.3443 17.6219 14.0971 17.8691C13.8499 18.1163 13.5155 18.2565 13.1659 18.2596C12.8163 18.2626 12.4795 18.1282 12.228 17.8853ZM15.0547 15.0573L14.1134 14.1147L16 12.2293L16.9427 13.172C17.07 13.295 17.1716 13.4421 17.2415 13.6048C17.3114 13.7675 17.3482 13.9424 17.3497 14.1195C17.3512 14.2965 17.3175 14.4721 17.2505 14.6359C17.1834 14.7998 17.0844 14.9487 16.9592 15.0739C16.834 15.1991 16.6852 15.2981 16.5213 15.3651C16.3574 15.4321 16.1819 15.4659 16.0048 15.4643C15.8278 15.4628 15.6528 15.426 15.4902 15.3561C15.3275 15.2863 15.1804 15.1847 15.0574 15.0573" fill="white"/>
</svg>
